<svg xmlns="http://www.w3.org/2000/svg" viewBox="0 0 100 100">
  <defs>
    <linearGradient id="red" x1="0%" y1="0%" x2="100%" y2="100%">
      <stop offset="0%" stop-color="#FF4B2B" />
      <stop offset="100%" stop-color="#FF416C" />
    </linearGradient>
    <linearGradient id="orange" x1="0%" y1="0%" x2="100%" y2="100%">
      <stop offset="0%" stop-color="#f7b733" />
      <stop offset="100%" stop-color="#fc4a1a" />
    </linearGradient>
    <linearGradient id="yellow" x1="0%" y1="0%" x2="100%" y2="100%">
      <stop offset="0%" stop-color="#FFE000" />
      <stop offset="100%" stop-color="#799F0C" />
    </linearGradient>
    <linearGradient id="green" x1="0%" y1="0%" x2="100%" y2="100%">
      <stop offset="0%" stop-color="#11998e" />
      <stop offset="100%" stop-color="#38ef7d" />
    </linearGradient>
    <linearGradient id="blue" x1="0%" y1="0%" x2="100%" y2="100%">
      <stop offset="0%" stop-color="#2193b0" />
      <stop offset="100%" stop-color="#6dd5ed" />
    </linearGradient>
    <linearGradient id="purple" x1="0%" y1="0%" x2="100%" y2="100%">
      <stop offset="0%" stop-color="#cc2b5e" />
      <stop offset="100%" stop-color="#753a88" />
    </linearGradient>
  </defs>
  
  <rect width="100" height="100" rx="20" fill="#1a1a1a" />
  
  <g transform="translate(50, 80)">
    <path d="M -40 0 A 40 40 0 0 1 40 0" fill="none" stroke="url(#red)" stroke-width="8" stroke-linecap="round"/>
    <path d="M -32 0 A 32 32 0 0 1 32 0" fill="none" stroke="url(#orange)" stroke-width="8" stroke-linecap="round"/>
    <path d="M -24 0 A 24 24 0 0 1 24 0" fill="none" stroke="url(#yellow)" stroke-width="8" stroke-linecap="round"/>
    <path d="M -16 0 A 16 16 0 0 1 16 0" fill="none" stroke="url(#green)" stroke-width="8" stroke-linecap="round"/>
    <path d="M -8 0 A 8 8 0 0 1 8 0" fill="none" stroke="url(#blue)" stroke-width="8" stroke-linecap="round"/>
  </g>
  
  <circle cx="50" cy="80" r="4" fill="#ffffff" />
</svg>
